<svg xmlns="http://www.w3.org/2000/svg" viewBox="0 0 700 700"><defs><style>.cls-1{fill:#fff;}</style></defs><g id="Layer_2" data-name="Layer 2"><g id="Layer_2-2" data-name="Layer 2"><path class="cls-1" d="M425.08,592.24c7.15-2.94,10.22-22.63,11-33.07.49-6.63,1-13.23,1.19-19.19-9.25,10.48-18.51,21-27.93,31.3C413.33,586.26,421.94,593.54,425.08,592.24Z"/><path class="cls-1" d="M178.54,474.56c-14.61-1.21-29.48,17.14-39.44,29.38-4.69,6.66-7,10-11.67,16.73a57.7,57.7,0,0,0-6.49,24.42c-.31,7.46.86,14.26,3.14,18.15.8,1.38,1.7,2.28,2.44,2.36,16.35,1.81,32.31-26.14,40.44-39.52,7.62-12.52,12.86-27.9,12.8-42.7,0-5.67-.8-8-1.12-8.8Z"/><path class="cls-1" d="M0,0V700H700V0ZM375.6,209.62c0-26,5.7-39.43,21.14-59.35l48-61.38C461,68.16,475.19,61.25,501.62,61.25h54.46c10.57,0,20.33,5.69,20.33,20.32s-9.76,20.33-20.33,20.33H507.31c-22.36,0-20.74-.41-34.15,16.66l-44.31,56.51c-12.6,15.85-12.6,32.92-12.6,52.84v79.67c0,22.36,4.88,29.27,28.05,29.27h64.63c14.64,0,26.83-3.26,26.83-21.14V274.25H496.33c-10.57,0-20.32-5.69-20.32-20.33s9.75-20.32,20.32-20.32h80.08v80.08c0,39.43-26.42,63.81-65,63.81H441.46c-18.7,0-32.52-3.25-46.75-16.25-16.26-14.64-19.11-29.68-19.11-50Zm-252,0c0-26,5.69-39.43,21.14-59.35l48-61.38C209,68.16,223.18,61.25,249.6,61.25h54.47c10.57,0,20.33,5.69,20.33,20.32s-9.76,20.33-20.33,20.33H255.29c-22.35,0-20.73-.41-34.14,16.66l-44.31,56.51c-12.6,15.85-12.6,32.92-12.6,52.84v79.67c0,22.36,4.88,29.27,28,29.27h64.63c14.63,0,26.83-3.26,26.83-21.14V274.25H244.32c-10.57,0-20.33-5.69-20.33-20.33s9.76-20.32,20.33-20.32H324.4v80.08c0,39.43-26.43,63.81-65,63.81H189.44c-18.7,0-32.52-3.25-46.74-16.25-16.26-14.64-19.11-29.68-19.11-50Zm542.1,192c-3.34,12.52-14.11,23.84-22.47,32.88-10.79,11.68-23.27,23.21-34.91,34.81,9.11-4.26,17.54-7.19,22.79-8.2,14.4-2.8,24.55,4.38,21.76,15.75-1.12,4.58-3.73,9.06-7.86,13.72-8.8,9.94-16,18.25-21.86,25.07-7.92,9.17-16.33,18.43-23.24,28-4.13,5.72-6.93,12-7.85,16.49-1.43,7,1.32,6.35,2.35,6,19.26-6.33,36.68-29.59,49.58-45.69a21.21,21.21,0,0,1,10.22-7.08c3.74-1,6.57-.29,7.75,2.05l0,.08c2.1,5.28-.09,12-6.34,19.75-17.18,21.44-43.64,40.32-69.1,48.36-13.76,4.34-38.45,3.44-34.49-17.31,4.89-25.59,29-48.5,45.42-66.81,1.21-1.36,2.39-2.72,3.53-4,2.14-2.42,4.44-5,6.31-7.16-21.78,13-43.58,28.78-60.08,47.79a489.86,489.86,0,0,0-43.8,59.05c-2.73,4.34-6.79,7.21-11,7.88a9.82,9.82,0,0,1-8.35-2.45,20.4,20.4,0,0,1-4.16-4.84,118.5,118.5,0,0,1-43.54,15.11c-1.27.17-2.55.29-3.77.43-17.65,2.1-38-1.4-51.06-14.74-15.06,10.88-30.44,19.62-49.21,20.28-15.13.53-32.14-6.41-37.18-22-14.66,11.82-30.56,17-47.77,16.65A30.67,30.67,0,0,1,221,594.88c-19,11.86-42.35,11.71-63,8.75-23.33-3.33-46.1-16.09-57.79-38.24a837.93,837.93,0,0,0-41.11,84.37c-2.83,6.73-7,6.84-9.21,6.28-1.76-.44-4.48-1.79-7.1-5.7-6.28-9.37-8.71-16.52-9.12-25.63A80.08,80.08,0,0,1,37,599.42c15.48-54.34,51.26-117.87,90.4-158.53l.09-.09c3.93-3.51,8-4.69,11.94-3.56,2.31.65,5.71,2.4,8.77,7a28.76,28.76,0,0,1,4.38,10.83,59.56,59.56,0,0,1,28.6-1.26c21.42,4.64,39,26.27,39,48.2,0,17-6.71,33.84-15.15,48.54-6.7,11.68-13.61,23-23.77,32.14,16.28-5,29.65-15.48,40-28.87l.08-.18c.15-.4.32-.8.49-1.2,12.51-29.39,32.36-56.92,53.91-78.79a13.54,13.54,0,0,1,11.5-3.73,18.4,18.4,0,0,1,11.49,6.59c4.3,5.13,7,12,6.4,17.89-1.62,16.41-16.74,33.26-26.35,47.52-6.45,9.58-13.07,19.58-17.71,28-5.49,10-6.42,18.09-4.56,20.83a1.76,1.76,0,0,0,1.64.84c16.94-1.33,36.37-30,48.26-44.56,9.23-11.29,17.86-23.77,26.44-35.74,7.38-10.31,15.15-21.1,24.36-29.75,4.1-3.86,8.7-5.95,13.18-5.7A13.29,13.29,0,0,1,380.2,481a24.34,24.34,0,0,1,5.65,18.32c-1.54,16.61-15.14,31.58-25.24,44.18-10.9,13.59-26.34,30.66-28.07,47.72-.58,5.78,2.49,6.34,3.64,6.25,13.2-1,25.16-17.1,34.32-27,0-1.15,0-2.2,0-3.17a33.63,33.63,0,0,1,15.32-26.88c3.9-2.56,7.58-3.85,10.86-3.88a9.36,9.36,0,0,1,7.57,3.44c12.17-13,24.28-26,36-39.44,2.78-11.28,8.76-18.82,19.35-25.38,7.2-4.46,15.7-7.4,23.08-7.72,6.93-.31,9.84,1.72,11.05,3.49,2.83,4.13-.38,11.14-9.56,21.57-.75,3.4-1.65,8.08-2.07,11.73-1.18,10.31-1.08,20-1,29.35.09,9.57.15,18.6-1.25,26.95a64.81,64.81,0,0,1-4.42,14.89,106.55,106.55,0,0,0,9.8-8c.23-.42.47-.84.72-1.27,38.23-64.63,98.36-125.86,155.71-173.1,4.36-3.59,8.7-5.68,12.74-6.3,2.78-.42,7.82-.41,10.28,4.25A14.69,14.69,0,0,1,665.69,401.63Z"/></g></g></svg>